M48
; DRILL file {KiCad (6.0.1)} date Wed Mar 29 13:19:06 2023
; FORMAT={-:-/ absolute / metric / decimal}
; #@! TF.CreationDate,2023-03-29T13:19:06+07:00
; #@! TF.GenerationSoftware,Kicad,Pcbnew,(6.0.1)
; #@! TF.FileFunction,MixedPlating,1,2
FMAT,2
METRIC
; #@! TA.AperFunction,Plated,PTH,ViaDrill
T1C0.400
; #@! TA.AperFunction,Plated,PTH,ComponentDrill
T2C0.500
; #@! TA.AperFunction,Plated,PTH,ComponentDrill
T3C0.762
; #@! TA.AperFunction,Plated,PTH,ComponentDrill
T4C0.800
; #@! TA.AperFunction,Plated,PTH,ComponentDrill
T5C1.000
; #@! TA.AperFunction,Plated,PTH,ComponentDrill
T6C1.300
; #@! TA.AperFunction,Plated,PTH,ComponentDrill
T7C1.500
; #@! TA.AperFunction,Plated,PTH,ComponentDrill
T8C1.800
; #@! TA.AperFunction,Plated,PTH,ComponentDrill
T9C2.300
; #@! TA.AperFunction,Plated,PTH,ComponentDrill
T10C2.600
; #@! TA.AperFunction,NonPlated,NPTH,ComponentDrill
T11C1.500
; #@! TA.AperFunction,NonPlated,NPTH,ComponentDrill
T12C1.750
; #@! TA.AperFunction,NonPlated,NPTH,ComponentDrill
T13C3.200
; #@! TA.AperFunction,NonPlated,NPTH,ComponentDrill
T14C4.000
%
G90
G05
T1
X23.833Y-69.2
X24.13Y-141.59
X24.638Y-104.125
X24.638Y-118.095
X24.638Y-133.97
X25.273Y-125.715
X25.4Y-46.34
X25.738Y-121.27
X26.035Y-73.325
X27.008Y-121.27
X27.94Y-93.965
X28.278Y-121.27
X28.448Y-71.74
X29.21Y-93.965
X29.548Y-121.27
X29.845Y-88.25
X30.48Y-93.965
X30.818Y-66.66
X30.818Y-121.27
X30.988Y-133.97
X31.369Y-115.428
X31.623Y-102.22
X31.75Y-93.965
X31.75Y-118.41
X32.088Y-121.27
X32.385Y-44.435
X32.893Y-141.59
X33.02Y-93.965
X33.358Y-100.95
X33.358Y-121.27
X34.29Y-93.965
X34.925Y-35.545
X35.433Y-102.22
X35.433Y-114.92
X35.433Y-125.08
X35.433Y-127.62
X35.56Y-48.88
X35.56Y-93.965
X36.703Y-108.57
X36.703Y-115.936
X36.83Y-93.965
X37.338Y-99.045
X37.465Y-71.74
X37.973Y-115.555
X39.243Y-110.475
X39.243Y-115.555
X39.243Y-121.778
X39.258Y-141.605
X39.37Y-46.975
X39.37Y-58.72
X39.708Y-67.93
X41.155Y-101.593
X41.91Y-46.975
X41.91Y-58.72
X42.883Y-91.425
X42.883Y-92.695
X42.883Y-93.965
X42.883Y-95.235
X42.883Y-96.505
X42.883Y-97.775
X43.307Y-115.936
X43.307Y-121.778
X45.593Y-86.98
X45.593Y-113.015
X45.593Y-115.936
X45.593Y-121.27
X45.72Y-46.975
X45.72Y-65.39
X46.99Y-71.42
X47.328Y-88.885
X47.328Y-93.965
X47.498Y-120.635
X47.498Y-122.54
X48.133Y-84.44
X48.133Y-111.11
X48.133Y-118.73
X48.26Y-47.61
X48.294Y-100.95
X48.598Y-87.615
X48.768Y-104.76
X48.768Y-116.825
X48.895Y-71.42
X49.233Y-130.428
X49.233Y-135.17
X50.8Y-75.865
X51.308Y-102.22
X52.07Y-46.02
X52.07Y-57.135
X52.07Y-69.515
X52.304Y-66.904
X52.578Y-84.44
X52.705Y-81.58
X53.213Y-99.695
X53.213Y-121.27
X53.34Y-75.865
X54.209Y-66.904
X54.61Y-46.02
X54.61Y-71.42
X54.61Y-142.86
X55.118Y-84.44
X55.753Y-98.41
X55.753Y-116.19
X57.023Y-61.58
X57.023Y-104.76
X57.023Y-109.205
X57.023Y-115.555
X57.15Y-47.29
X57.658Y-84.44
X58.293Y-110.475
X58.293Y-115.555
X58.293Y-121.27
X58.928Y-86.345
X59.69Y-47.29
X61.468Y-84.44
X61.595Y-59.355
X62.103Y-121.27
X63.373Y-62.215
X63.5Y-52.69
X64.643Y-113.015
X64.643Y-116.19
X64.643Y-122.54
X64.77Y-44.435
X64.77Y-46.34
X66.675Y-75.55
X67.183Y-111.11
X67.183Y-116.825
X67.183Y-118.73
X67.183Y-120.635
X67.325Y-100.95
X67.818Y-104.76
X67.818Y-135.17
X68.453Y-92.695
X68.453Y-98.41
X69.088Y-62.215
X70.358Y-90.79
X70.485Y-46.34
X71.628Y-121.27
X72.263Y-89.52
X72.263Y-99.68
X73.66Y-49.515
X74.168Y-59.04
X74.295Y-35.545
X74.803Y-97.14
X74.803Y-116.19
X74.93Y-67.295
X76.073Y-104.76
X76.073Y-109.205
X76.073Y-115.555
X77.343Y-110.475
X77.343Y-115.555
X78.373Y-104.76
X78.443Y-70.4
X79.248Y-42.53
X79.248Y-45.07
X79.375Y-38.085
X80.518Y-60.945
X81.153Y-45.07
X81.153Y-121.27
X81.788Y-38.72
X83.058Y-45.07
X83.693Y-113.015
X83.693Y-116.19
X84.963Y-45.07
X84.963Y-122.54
X86.233Y-39.355
X86.233Y-97.14
X86.233Y-104.76
X86.233Y-111.11
X86.233Y-116.825
X86.233Y-118.73
X86.233Y-120.635
X86.36Y-62.215
X86.868Y-100.95
X86.868Y-135.17
X86.995Y-60.945
X87.503Y-39.355
X87.503Y-59.04
X87.63Y-85.71
X88.265Y-67.295
X88.603Y-50.08
X88.603Y-51.35
X88.603Y-52.62
X89.873Y-50.08
X89.873Y-51.35
X89.873Y-52.62
X90.678Y-121.27
X91.313Y-62.215
X91.313Y-99.68
X91.948Y-38.72
X91.948Y-83.805
X92.583Y-66.66
X92.583Y-80.63
X92.71Y-59.675
X93.683Y-36.745
X93.683Y-54.04
X93.853Y-116.19
X93.98Y-142.86
X94.488Y-42.53
X95.123Y-79.995
X95.123Y-97.14
X95.123Y-104.76
X95.123Y-109.205
X95.123Y-115.555
X95.588Y-48.175
X95.588Y-49.445
X95.588Y-50.715
X95.588Y-53.89
X95.885Y-59.675
X96.393Y-110.475
X96.393Y-115.555
X96.393Y-122.54
X96.858Y-48.175
X96.858Y-49.445
X96.858Y-50.715
X99.695Y-60.31
X100.203Y-121.27
X100.965Y-38.085
X100.965Y-45.07
X100.965Y-80.63
X102.743Y-113.015
X103.378Y-122.54
X104.648Y-116.825
X104.648Y-118.73
X104.648Y-120.635
X105.283Y-104.76
X105.283Y-111.11
X105.41Y-122.54
X105.918Y-97.14
X105.918Y-100.95
X105.918Y-135.17
X106.913Y-67.569
X107.315Y-60.31
X109.728Y-121.27
X110.363Y-99.68
X112.903Y-116.19
X114.173Y-104.76
X114.173Y-109.205
X114.173Y-115.555
X114.808Y-97.14
X114.808Y-102.22
X115.443Y-110.475
X115.443Y-115.555
X115.443Y-122.54
X116.078Y-79.36
X116.84Y-53.325
X117.475Y-39.99
X119.253Y-121.27
X119.888Y-116.19
X120.523Y-35.545
X121.158Y-83.735
X121.158Y-85.71
X121.623Y-80.56
X121.793Y-113.015
X123.063Y-122.54
X123.528Y-72.795
X124.333Y-97.14
X124.333Y-104.76
X124.333Y-111.11
X124.333Y-116.825
X124.333Y-118.73
X124.333Y-120.635
X124.46Y-122.54
X124.968Y-100.95
X124.968Y-136.44
X127.338Y-66.445
X128.27Y-90.155
X128.333Y-84.72
X128.778Y-121.27
X129.413Y-99.68
X130.175Y-53.325
X130.175Y-76.185
X131.953Y-116.19
X132.588Y-89.52
X133.053Y-98.41
X133.35Y-71.74
X133.363Y-109.192
X133.363Y-115.682
X133.477Y-104.69
X134.45Y-110.786
X134.45Y-115.866
X134.493Y-122.54
X136.228Y-98.41
X136.228Y-104.76
X137.668Y-104.76
X138.303Y-121.27
X138.557Y-48.118
X138.768Y-39.285
X139.7Y-81.265
X140.038Y-66.445
X140.843Y-113.015
X142.113Y-122.54
X142.721Y-53.466
X143.213Y-111.11
X143.354Y-85.075
X143.383Y-104.76
X143.383Y-116.825
X143.383Y-118.73
X143.383Y-120.635
X143.51Y-123.175
X144.018Y-136.44
X146.531Y-53.466
X147.828Y-121.27
X148.293Y-60.095
X148.403Y-49.41
X148.463Y-107.23
X149.733Y-90.79
X150.368Y-107.3
X150.495Y-82.535
X151.003Y-116.19
X152.103Y-109.205
X152.103Y-115.485
X152.908Y-104.76
X153.373Y-110.405
X153.373Y-115.485
X153.543Y-122.54
X153.67Y-102.855
X155.278Y-62.0
X157.353Y-116.19
X157.353Y-121.27
X157.48Y-81.265
X158.115Y-97.775
X159.893Y-113.015
X161.163Y-121.92
X162.433Y-104.76
X162.433Y-111.11
X162.433Y-116.825
X162.433Y-118.73
X162.433Y-120.635
X162.56Y-123.175
X163.068Y-136.44
X166.878Y-121.27
X167.513Y-106.595
X169.883Y-59.46
X169.883Y-60.73
X170.053Y-116.19
X170.18Y-65.263
X170.815Y-142.86
X171.083Y-104.76
X171.153Y-109.135
X171.153Y-115.485
X172.423Y-110.405
X172.423Y-115.485
X172.593Y-122.54
X173.228Y-90.79
X176.403Y-121.27
X177.165Y-102.855
X177.673Y-53.96
X178.943Y-113.015
X179.705Y-81.265
X180.213Y-121.905
X180.678Y-56.92
X181.313Y-111.11
X181.483Y-104.76
X181.483Y-116.825
X181.483Y-118.73
X181.483Y-120.635
X181.61Y-97.775
X181.61Y-123.175
X181.948Y-59.46
X182.118Y-136.44
X183.388Y-53.96
X183.388Y-55.865
X187.028Y-48.03
X189.23Y-117.46
X189.23Y-132.065
X189.865Y-107.3
X191.643Y-100.315
X193.519Y-59.675
X195.453Y-50.785
X195.836Y-55.865
X197.993Y-60.945
X197.993Y-78.09
X199.263Y-50.785
X199.898Y-100.315
X200.025Y-111.745
X200.533Y-58.405
X200.533Y-60.945
X200.533Y-78.09
X200.66Y-93.965
X200.66Y-117.46
X200.66Y-132.7
T3
X144.567Y-94.07
X144.567Y-96.07
X144.567Y-98.07
X149.567Y-94.07
X149.567Y-96.07
X149.567Y-98.07
X168.062Y-94.07
X168.062Y-96.07
X168.062Y-98.07
X173.062Y-94.07
X173.062Y-96.07
X173.062Y-98.07
X191.557Y-94.07
X191.557Y-96.07
X191.557Y-98.07
X196.557Y-94.07
X196.557Y-96.07
X196.557Y-98.07
T4
X36.83Y-39.355
X36.83Y-54.595
X39.37Y-39.355
X39.37Y-54.595
X41.91Y-39.355
X41.91Y-54.595
X44.45Y-39.355
X44.45Y-54.595
X46.99Y-39.355
X46.99Y-54.595
X49.53Y-39.355
X49.53Y-54.595
X52.07Y-39.355
X52.07Y-54.595
X54.61Y-39.355
X54.61Y-54.595
X57.15Y-39.355
X57.15Y-54.595
X59.69Y-39.355
X59.69Y-54.595
X62.23Y-39.355
X62.23Y-54.595
X64.77Y-39.355
X64.77Y-54.595
X67.31Y-39.355
X67.31Y-54.595
X69.85Y-39.355
X69.85Y-54.595
X72.39Y-39.355
X72.39Y-54.595
T5
X30.119Y-69.429
X30.119Y-83.929
X32.619Y-83.929
X35.119Y-69.429
X35.119Y-83.929
X53.848Y-91.86
X56.388Y-91.86
X58.928Y-91.86
X61.468Y-91.86
X99.568Y-55.89
X102.108Y-55.89
X104.648Y-55.89
X106.013Y-37.9
X107.188Y-55.89
X108.513Y-37.9
X111.013Y-37.9
X123.793Y-37.9
X126.293Y-37.9
X128.793Y-37.9
X141.487Y-91.17
X141.487Y-93.71
X141.487Y-96.25
X141.487Y-98.79
X141.487Y-101.33
X164.982Y-91.17
X164.982Y-93.71
X164.982Y-96.25
X164.982Y-98.79
X164.982Y-101.33
X188.477Y-91.17
X188.477Y-93.71
X188.477Y-96.25
X188.477Y-98.79
X188.477Y-101.33
T6
X157.625Y-46.615
X171.625Y-46.615
T7
X42.248Y-129.31
X48.598Y-126.77
X61.298Y-129.31
X67.648Y-126.77
X80.348Y-129.31
X86.698Y-126.77
X99.398Y-129.31
X105.748Y-126.77
X118.448Y-129.31
X124.798Y-126.77
X137.498Y-73.955
X137.498Y-129.31
X143.848Y-71.415
X143.848Y-126.77
X156.548Y-129.31
X162.898Y-126.77
X166.073Y-73.955
X172.423Y-71.415
X175.598Y-129.31
X181.948Y-126.77
X185.123Y-73.955
X191.473Y-71.415
T8
X157.625Y-39.365
X171.625Y-39.365
T9
X103.513Y-41.2
X113.513Y-41.2
X121.293Y-41.2
X131.293Y-41.2
T10
X27.019Y-76.429
X38.219Y-76.429
T11
X140.096Y-43.68
X188.185Y-43.68
T12
X40.978Y-131.85
X51.138Y-131.85
X60.028Y-131.85
X70.188Y-131.85
X79.078Y-131.85
X89.238Y-131.85
X98.128Y-131.85
X108.288Y-131.85
X117.178Y-131.85
X127.338Y-131.85
X136.228Y-76.495
X136.228Y-131.85
X146.388Y-76.495
X146.388Y-131.85
X155.278Y-131.85
X164.803Y-76.495
X165.438Y-131.85
X174.328Y-131.85
X174.963Y-76.495
X183.853Y-76.495
X184.488Y-131.85
X194.013Y-76.495
T13
X27.733Y-39.13
X27.733Y-139.13
X197.733Y-39.13
X197.733Y-139.13
T14
X46.058Y-131.85
X65.108Y-131.85
X84.158Y-131.85
X103.208Y-131.85
X122.258Y-131.85
X141.308Y-76.495
X141.308Y-131.85
X160.358Y-131.85
X169.883Y-76.495
X179.408Y-131.85
X188.933Y-76.495
T2
G00X82.568Y-37.31
M15
G01X82.568Y-36.41
M16
G05
G00X82.568Y-41.01
M15
G01X82.568Y-40.11
M16
G05
G00X91.208Y-37.31
M15
G01X91.208Y-36.41
M16
G05
G00X91.208Y-41.01
M15
G01X91.208Y-40.11
M16
G05
T0
M30
